<svg xmlns="http://www.w3.org/2000/svg" viewBox="0 0 24 24" fill="none" stroke="currentColor" stroke-width="2" stroke-linecap="round" stroke-linejoin="round">
  <path d="M19 17h2c.6 0 1-.4 1-1v-3c0-.9-.7-1.7-1.5-1.9C18.7 10.6 16 10 16 10s-1.3-1.4-2.2-2.3c-.5-.4-1.1-.7-1.8-.7H5c-.6 0-1.1.4-1.4.9l-1.4 2.9A3.7 3.7 0 0 0 2 12v4c0 .6.4 1 1 1h2"/>
  <circle cx="7.5" cy="17.5" r="2.5"/>
  <circle cx="16.5" cy="17.5" r="2.5"/>
  <path d="M2 12h12"/>
  <path d="M3 12c0 3.3 3 4 5 4s2-1 2-4-2-4-2-4c-2 0-4 1-4 4 0 5 2 8 2 12"/>
</svg>
